<svg width="512" height="512" viewBox="0 0 512 512" fill="none" xmlns="http://www.w3.org/2000/svg">
<path d="M263.5 470.492C371.806 406.295 438.188 291.874 438.188 164.352V98.4078L263.5 33.7734L88.8125 98.4078V164.352C88.8125 291.874 155.194 406.295 263.5 470.492Z" fill="white"/>
<path d="M263.5 483.594C261.316 483.594 258.696 483.157 256.949 481.847C143.402 414.592 75.7109 295.805 75.7109 164.352V98.4078C75.7109 92.7305 79.2047 87.9266 84.4453 86.1797L259.133 21.5453C262.19 20.6719 265.247 20.6719 268.304 21.5453L442.555 86.1797C447.795 87.9266 451.289 93.1672 451.289 98.4078V164.352C451.289 295.805 383.598 414.592 270.051 481.847C268.304 483.157 265.684 483.594 263.5 483.594ZM101.914 107.579V164.352C101.914 284.013 162.181 391.883 263.5 455.207C364.819 392.32 425.086 284.013 425.086 164.352V107.579L263.5 47.7484L101.914 107.579Z" fill="#444B54"/>
<path d="M264 71V434C352.5 368.68 404 267.459 404 156.265V122.857L264 71Z" fill="#D0D4D8"/>
<g filter="url(#filter0_d)">
<path d="M245.39 231.572C245.39 240.983 243.241 249.422 238.942 256.888C234.644 264.308 229.214 270.009 222.653 273.991C217.721 276.978 212.314 279.059 206.432 280.235C200.55 281.412 193.582 282 185.528 282H149.896V180.94H186.546C194.781 180.94 201.885 181.641 207.857 183.044C213.83 184.401 218.853 186.347 222.925 188.881C229.893 193.134 235.368 198.881 239.35 206.12C243.377 213.314 245.39 221.798 245.39 231.572ZM218.445 231.368C218.445 224.717 217.224 219.038 214.78 214.333C212.382 209.582 208.559 205.871 203.31 203.202C200.64 201.889 197.903 201.007 195.098 200.555C192.338 200.057 188.152 199.808 182.542 199.808H175.958V263.064H182.542C188.74 263.064 193.288 262.792 196.184 262.25C199.079 261.661 201.907 260.621 204.667 259.127C209.418 256.413 212.903 252.793 215.12 248.268C217.337 243.698 218.445 238.065 218.445 231.368Z" fill="#444B54"/>
</g>
<g filter="url(#filter1_d)">
<path d="M334.573 283.968C327.062 283.968 320.116 282.86 313.736 280.643C307.402 278.425 301.949 275.122 297.379 270.733C292.809 266.344 289.257 260.869 286.724 254.309C284.235 247.748 282.991 240.169 282.991 231.572C282.991 223.563 284.19 216.301 286.588 209.785C288.986 203.27 292.47 197.681 297.04 193.021C301.429 188.542 306.859 185.08 313.329 182.637C319.845 180.193 326.949 178.972 334.641 178.972C338.894 178.972 342.717 179.221 346.111 179.718C349.55 180.171 352.717 180.782 355.613 181.551C358.644 182.41 361.382 183.383 363.825 184.469C366.314 185.51 368.486 186.483 370.341 187.388V211.889H367.354C366.088 210.803 364.481 209.514 362.536 208.021C360.635 206.527 358.463 205.057 356.02 203.609C353.531 202.161 350.839 200.939 347.943 199.944C345.048 198.948 341.948 198.451 338.645 198.451C334.98 198.451 331.496 199.039 328.193 200.215C324.89 201.347 321.836 203.247 319.03 205.917C316.361 208.496 314.189 211.912 312.515 216.165C310.886 220.418 310.071 225.576 310.071 231.64C310.071 237.974 310.954 243.268 312.718 247.521C314.528 251.775 316.791 255.123 319.505 257.566C322.265 260.055 325.342 261.842 328.736 262.928C332.129 263.969 335.478 264.489 338.781 264.489C341.948 264.489 345.07 264.014 348.147 263.064C351.269 262.114 354.142 260.824 356.767 259.195C358.984 257.883 361.042 256.48 362.943 254.987C364.843 253.494 366.404 252.205 367.626 251.119H370.341V275.281C367.807 276.412 365.386 277.475 363.079 278.471C360.771 279.466 358.35 280.326 355.816 281.05C352.513 282 349.414 282.724 346.518 283.222C343.622 283.719 339.64 283.968 334.573 283.968Z" fill="#E11D29"/>
</g>
<defs>
<filter id="filter0_d" x="145.896" y="180.94" width="103.495" height="109.06" filterUnits="userSpaceOnUse" color-interpolation-filters="sRGB">
<feFlood flood-opacity="0" result="BackgroundImageFix"/>
<feColorMatrix in="SourceAlpha" type="matrix" values="0 0 0 0 0 0 0 0 0 0 0 0 0 0 0 0 0 0 127 0"/>
<feOffset dy="4"/>
<feGaussianBlur stdDeviation="2"/>
<feColorMatrix type="matrix" values="0 0 0 0 0 0 0 0 0 0 0 0 0 0 0 0 0 0 0.25 0"/>
<feBlend mode="normal" in2="BackgroundImageFix" result="effect1_dropShadow"/>
<feBlend mode="normal" in="SourceGraphic" in2="effect1_dropShadow" result="shape"/>
</filter>
<filter id="filter1_d" x="278.991" y="178.972" width="95.3501" height="112.997" filterUnits="userSpaceOnUse" color-interpolation-filters="sRGB">
<feFlood flood-opacity="0" result="BackgroundImageFix"/>
<feColorMatrix in="SourceAlpha" type="matrix" values="0 0 0 0 0 0 0 0 0 0 0 0 0 0 0 0 0 0 127 0"/>
<feOffset dy="4"/>
<feGaussianBlur stdDeviation="2"/>
<feColorMatrix type="matrix" values="0 0 0 0 0 0 0 0 0 0 0 0 0 0 0 0 0 0 0.25 0"/>
<feBlend mode="normal" in2="BackgroundImageFix" result="effect1_dropShadow"/>
<feBlend mode="normal" in="SourceGraphic" in2="effect1_dropShadow" result="shape"/>
</filter>
</defs>
</svg>
